<?xml version="1.0" encoding="UTF-8" standalone="no"?>
<!-- Created with Inkscape (http://www.inkscape.org/) -->

<svg
   xmlns:dc="http://purl.org/dc/elements/1.1/"
   xmlns:cc="http://creativecommons.org/ns#"
   xmlns:rdf="http://www.w3.org/1999/02/22-rdf-syntax-ns#"
   xmlns:svg="http://www.w3.org/2000/svg"
   xmlns="http://www.w3.org/2000/svg"
   xmlns:sodipodi="http://sodipodi.sourceforge.net/DTD/sodipodi-0.dtd"
   xmlns:inkscape="http://www.inkscape.org/namespaces/inkscape"
   width="128"
   height="128"
   viewBox="0 0 33.866666 33.866668"
   version="1.1"
   id="svg8"
   inkscape:version="0.92.4 5da689c313, 2019-01-14"
   sodipodi:docname="4. DNA genetic, molecule, science, medical, chemistry, structure.svg">
  <defs
     id="defs2">
    <pattern
       y="0"
       x="0"
       height="6"
       width="6"
       patternUnits="userSpaceOnUse"
       id="EMFhbasepattern" />
  </defs>
  <sodipodi:namedview
     id="base"
     pagecolor="#ffffff"
     bordercolor="#666666"
     borderopacity="1.0"
     inkscape:pageopacity="0.0"
     inkscape:pageshadow="2"
     inkscape:zoom="1.0000001"
     inkscape:cx="-346.08461"
     inkscape:cy="57.814255"
     inkscape:document-units="px"
     inkscape:current-layer="layer1"
     showgrid="false"
     units="px"
     inkscape:window-width="1366"
     inkscape:window-height="701"
     inkscape:window-x="0"
     inkscape:window-y="0"
     inkscape:window-maximized="1"
     showguides="true"
     inkscape:guide-bbox="true"
     inkscape:snap-global="true"
     inkscape:object-paths="true">
    <inkscape:grid
       type="xygrid"
       id="grid815"
       empspacing="1"
       originx="0"
       originy="0"
       spacingx="0"
       spacingy="0"
       snapvisiblegridlinesonly="true"
       visible="true"
       enabled="true"
       dotted="false" />
  </sodipodi:namedview>
  <metadata
     id="metadata5">
    <rdf:RDF>
      <cc:Work
         rdf:about="">
        <dc:format>image/svg+xml</dc:format>
        <dc:type
           rdf:resource="http://purl.org/dc/dcmitype/StillImage" />
        <dc:title />
      </cc:Work>
    </rdf:RDF>
  </metadata>
  <g
     inkscape:label="Layer 1"
     inkscape:groupmode="layer"
     id="layer1"
     transform="translate(0,-263.13332)">
    <path
       inkscape:connector-curvature="0"
       id="path1673-6"
       d="m 9.0690235,279.18271 a 0.84308689,0.84270938 0 0 0 -0.073336,1.0644 c 2.5698795,3.74881 4.9013715,5.50516 7.1402025,6.0902 2.238837,0.58505 4.230139,-0.0427 5.971196,-0.64948 1.741065,-0.60673 3.248399,-1.16537 4.687777,-0.91192 1.439384,0.25346 3.036711,1.29186 4.982603,4.41445 a 0.84330576,0.84292814 0 1 0 1.431557,-0.89139 c -2.080814,-3.33912 -4.095631,-4.82608 -6.120803,-5.18269 -2.025172,-0.35661 -3.836915,0.38836 -5.537032,0.98083 -1.700124,0.59246 -3.272187,1.05878 -4.989934,0.6099 -1.717746,-0.44888 -3.734197,-1.85225 -6.175078,-5.41287 a 0.84308689,0.84270938 0 0 0 -1.3171525,-0.11143 z"
       style="color:#000000;font-style:normal;font-variant:normal;font-weight:normal;font-stretch:normal;font-size:medium;line-height:normal;font-family:sans-serif;font-variant-ligatures:normal;font-variant-position:normal;font-variant-caps:normal;font-variant-numeric:normal;font-variant-alternates:normal;font-feature-settings:normal;text-indent:0;text-align:start;text-decoration:none;text-decoration-line:none;text-decoration-style:solid;text-decoration-color:#000000;letter-spacing:normal;word-spacing:normal;text-transform:none;writing-mode:lr-tb;direction:ltr;text-orientation:mixed;dominant-baseline:auto;baseline-shift:baseline;text-anchor:start;white-space:normal;shape-padding:0;clip-rule:nonzero;display:inline;overflow:visible;visibility:visible;opacity:1;isolation:auto;mix-blend-mode:normal;color-interpolation:sRGB;color-interpolation-filters:linearRGB;solid-color:#000000;solid-opacity:1;vector-effect:none;fill:#8a2be2;fill-opacity:1;fill-rule:nonzero;stroke:none;stroke-width:1.58749998;stroke-linecap:round;stroke-linejoin:round;stroke-miterlimit:4;stroke-dasharray:none;stroke-dashoffset:0;stroke-opacity:1;color-rendering:auto;image-rendering:auto;shape-rendering:auto;text-rendering:auto;enable-background:accumulate" />
    <path
       inkscape:connector-curvature="0"
       id="path1686"
       d="m 20.307372,287.02053 a 0.84308689,0.84270938 0 0 0 -0.22148,0.41784 c -0.298149,1.34609 -0.328005,2.8423 0.412154,4.35286 0.740166,1.51058 2.182855,2.98876 4.656974,4.54934 a 0.843161,0.84278345 0 1 0 0.900592,-1.42506 c -2.316561,-1.46119 -3.4975,-2.74661 -4.045329,-3.86465 -0.547836,-1.11805 -0.529663,-2.1158 -0.278685,-3.2489 a 0.84308689,0.84270938 0 0 0 -1.424229,-0.78143 z"
       style="color:#000000;font-style:normal;font-variant:normal;font-weight:normal;font-stretch:normal;font-size:medium;line-height:normal;font-family:sans-serif;font-variant-ligatures:normal;font-variant-position:normal;font-variant-caps:normal;font-variant-numeric:normal;font-variant-alternates:normal;font-feature-settings:normal;text-indent:0;text-align:start;text-decoration:none;text-decoration-line:none;text-decoration-style:solid;text-decoration-color:#000000;letter-spacing:normal;word-spacing:normal;text-transform:none;writing-mode:lr-tb;direction:ltr;text-orientation:mixed;dominant-baseline:auto;baseline-shift:baseline;text-anchor:start;white-space:normal;shape-padding:0;clip-rule:nonzero;display:inline;overflow:visible;visibility:visible;opacity:1;isolation:auto;mix-blend-mode:normal;color-interpolation:sRGB;color-interpolation-filters:linearRGB;solid-color:#000000;solid-opacity:1;vector-effect:none;fill:#8a2be2;fill-opacity:1;fill-rule:nonzero;stroke:none;stroke-width:1.58749998;stroke-linecap:round;stroke-linejoin:round;stroke-miterlimit:4;stroke-dasharray:none;stroke-dashoffset:0;stroke-opacity:1;color-rendering:auto;image-rendering:auto;shape-rendering:auto;text-rendering:auto;enable-background:accumulate" />
    <path
       inkscape:connector-curvature="0"
       id="path1716"
       d="m 7.6374604,263.93227 a 0.84308689,0.84270938 0 0 0 0.1774813,1.29164 c 2.3165683,1.4612 3.4975003,2.74661 4.0453363,3.86466 0.547828,1.11804 0.529655,2.11579 0.278685,3.24889 a 0.84308689,0.84270938 0 1 0 1.64571,0.3636 c 0.29815,-1.3461 0.328004,-2.8423 -0.412162,-4.35288 -0.740167,-1.51057 -2.182848,-2.98875 -4.6569745,-4.54933 a 0.84308689,0.84270938 0 0 0 -1.0780738,0.13341 z"
       style="color:#000000;font-style:normal;font-variant:normal;font-weight:normal;font-stretch:normal;font-size:medium;line-height:normal;font-family:sans-serif;font-variant-ligatures:normal;font-variant-position:normal;font-variant-caps:normal;font-variant-numeric:normal;font-variant-alternates:normal;font-feature-settings:normal;text-indent:0;text-align:start;text-decoration:none;text-decoration-line:none;text-decoration-style:solid;text-decoration-color:#000000;letter-spacing:normal;word-spacing:normal;text-transform:none;writing-mode:lr-tb;direction:ltr;text-orientation:mixed;dominant-baseline:auto;baseline-shift:baseline;text-anchor:start;white-space:normal;shape-padding:0;clip-rule:nonzero;display:inline;overflow:visible;visibility:visible;opacity:1;isolation:auto;mix-blend-mode:normal;color-interpolation:sRGB;color-interpolation-filters:linearRGB;solid-color:#000000;solid-opacity:1;vector-effect:none;fill:#8a2be2;fill-opacity:1;fill-rule:nonzero;stroke:none;stroke-width:1.58749998;stroke-linecap:round;stroke-linejoin:round;stroke-miterlimit:4;stroke-dasharray:none;stroke-dashoffset:0;stroke-opacity:1;color-rendering:auto;image-rendering:auto;shape-rendering:auto;text-rendering:auto;enable-background:accumulate" />
    <path
       inkscape:connector-curvature="0"
       id="path1718"
       d="m 0.78473933,270.78192 a 0.84308689,0.84270938 0 0 0 -0.12174189,1.05999 c 2.08081496,3.33912 4.09417456,4.82463 6.11933876,5.18123 2.0251725,0.3566 3.8369238,-0.38836 5.5370388,-0.98082 1.700116,-0.59247 3.272188,-1.05878 4.989928,-0.60991 1.717745,0.44888 3.734204,1.85225 6.175077,5.41287 a 0.84316686,0.8427893 0 1 0 1.39196,-0.9515 c -2.569878,-3.74881 -4.902835,-5.50663 -7.141673,-6.09168 -2.238837,-0.58505 -4.230132,0.0428 -5.971197,0.64949 -1.741065,0.60673 -3.2483912,1.16538 -4.6877765,0.91192 -1.4393846,-0.25346 -3.0352455,-1.2904 -4.9811307,-4.41299 a 0.84308689,0.84270938 0 0 0 -1.30982347,-0.1686 z"
       style="color:#000000;font-style:normal;font-variant:normal;font-weight:normal;font-stretch:normal;font-size:medium;line-height:normal;font-family:sans-serif;font-variant-ligatures:normal;font-variant-position:normal;font-variant-caps:normal;font-variant-numeric:normal;font-variant-alternates:normal;font-feature-settings:normal;text-indent:0;text-align:start;text-decoration:none;text-decoration-line:none;text-decoration-style:solid;text-decoration-color:#000000;letter-spacing:normal;word-spacing:normal;text-transform:none;writing-mode:lr-tb;direction:ltr;text-orientation:mixed;dominant-baseline:auto;baseline-shift:baseline;text-anchor:start;white-space:normal;shape-padding:0;clip-rule:nonzero;display:inline;overflow:visible;visibility:visible;opacity:1;isolation:auto;mix-blend-mode:normal;color-interpolation:sRGB;color-interpolation-filters:linearRGB;solid-color:#000000;solid-opacity:1;vector-effect:none;fill:#8a2be2;fill-opacity:1;fill-rule:nonzero;stroke:none;stroke-width:1.58749998;stroke-linecap:round;stroke-linejoin:round;stroke-miterlimit:4;stroke-dasharray:none;stroke-dashoffset:0;stroke-opacity:1;color-rendering:auto;image-rendering:auto;shape-rendering:auto;text-rendering:auto;enable-background:accumulate" />
    <path
       id="path869"
       d="m 2.4534356,274.28736 c 0.4013136,0.45596 0.8006743,0.85022 1.1991706,1.18544 l 1.1886929,-1.18816 c -0.384592,-0.31097 -0.7832315,-0.70237 -1.198006,-1.18661 z m 7.5051045,-7.50175 c 0.4849289,0.41932 0.8668899,0.81991 1.1793779,1.20523 l 1.200724,-1.20018 c -0.335332,-0.39831 -0.729716,-0.79717 -1.185976,-1.19864 z m -4.8832271,9.6492 c 0.5692517,0.2948 1.1378491,0.48821 1.7071697,0.58846 0.025262,0.004 0.05009,0.007 0.075288,0.0109 L 8.521087,275.3716 c -0.4926003,0.0646 -0.9735052,0.075 -1.4456029,-0.008 -0.2384598,-0.042 -0.4816864,-0.1077 -0.7295928,-0.19861 z m 6.955969,-6.95285 c 0.279685,0.73141 0.321686,1.42387 0.229745,2.15133 l 1.638866,-1.63813 c -0.08918,-0.54245 -0.256405,-1.0936 -0.527401,-1.64667 -0.02229,-0.0455 -0.04745,-0.0907 -0.07102,-0.13615 z m -1.936914,12.26292 c 0.368438,0.46941 0.732577,0.89852 1.092062,1.2894 l 1.192185,-1.19165 c -0.351797,-0.38629 -0.712669,-0.81359 -1.084687,-1.29677 z m 6.455345,-6.45245 c 0.25066,0.0288 0.503242,0.0731 0.759475,0.14003 0.347358,0.0908 0.707586,0.22309 1.080419,0.40187 l 0.988443,-0.988 a 0.84308692,0.84270937 0 0 0 0.206459,-0.28705 c -0.544658,-0.30379 -1.081589,-0.52953 -1.613254,-0.68776 z m -4.37096,8.73839 c 0.446719,0.40936 0.887571,0.76142 1.32297,1.0617 l 1.215082,-1.21454 c -0.431885,-0.27452 -0.880093,-0.61363 -1.347418,-1.03726 z m 7.448833,-7.4455 c 0.412669,0.30202 0.839364,0.66312 1.283385,1.10127 l 1.189857,-1.18932 c -0.429376,-0.42371 -0.852425,-0.79216 -1.270966,-1.11369 z m -4.872361,9.23879 c 0.464695,0.22314 0.924603,0.3941 1.380405,0.51321 0.133956,0.035 0.267151,0.0654 0.399336,0.0919 l 1.546116,-1.54542 c -0.498411,0.009 -1.002365,-0.0417 -1.519727,-0.17689 -0.170688,-0.0446 -0.345258,-0.10178 -0.521969,-0.16641 z m 7.109261,-7.10607 c 0.341779,0.39922 0.692431,0.84164 1.052865,1.33168 l 1.204605,-1.20406 c -0.358361,-0.47745 -0.712395,-0.91958 -1.062179,-1.32238 z m -1.005131,13.71641 c 0.280762,0.44585 0.626335,0.89031 1.047432,1.33634 l 1.19723,-1.1967 c -0.450535,-0.48238 -0.779908,-0.9399 -1.010951,-1.3728 z m 7.21676,-7.21353 c 0.440901,0.23105 0.898933,0.55545 1.378853,1.00507 l 1.183648,-1.18312 c -0.446411,-0.42068 -0.891452,-0.76897 -1.335388,-1.04852 z m -4.925528,9.6876 c 0.411234,0.33516 0.866415,0.67228 1.371481,1.01322 l 1.216635,-1.21609 c -0.521938,-0.34145 -0.984962,-0.67342 -1.389333,-0.99538 z m 7.434474,-7.43114 c 0.319421,0.40613 0.648681,0.86966 0.988445,1.39608 l 1.219351,-1.21881 c -0.338726,-0.5058 -0.675909,-0.96023 -1.011729,-1.37281 z"
       style="color:#000000;font-style:normal;font-variant:normal;font-weight:normal;font-stretch:normal;font-size:medium;line-height:normal;font-family:sans-serif;font-variant-ligatures:normal;font-variant-position:normal;font-variant-caps:normal;font-variant-numeric:normal;font-variant-alternates:normal;font-feature-settings:normal;text-indent:0;text-align:start;text-decoration:none;text-decoration-line:none;text-decoration-style:solid;text-decoration-color:#000000;letter-spacing:normal;word-spacing:normal;text-transform:none;writing-mode:lr-tb;direction:ltr;text-orientation:mixed;dominant-baseline:auto;baseline-shift:baseline;text-anchor:start;white-space:normal;shape-padding:0;clip-rule:nonzero;display:inline;overflow:visible;visibility:visible;opacity:1;isolation:auto;mix-blend-mode:normal;color-interpolation:sRGB;color-interpolation-filters:linearRGB;solid-color:#000000;solid-opacity:1;vector-effect:none;fill:#791ccf;fill-opacity:1;fill-rule:nonzero;stroke:none;stroke-width:1.5875001;stroke-linecap:round;stroke-linejoin:round;stroke-miterlimit:4;stroke-dasharray:none;stroke-dashoffset:0;stroke-opacity:1;color-rendering:auto;image-rendering:auto;shape-rendering:auto;text-rendering:auto;enable-background:accumulate"
       inkscape:connector-curvature="0" />
    <path
       inkscape:connector-curvature="0"
       id="path1698"
       d="m 22.271364,294.5959 a 0.84320971,0.84283214 0 1 0 1.192479,1.19194 l 9.19661,-9.19249 a 0.84320971,0.84283214 0 1 0 -1.192478,-1.19194 z"
       style="color:#000000;font-style:normal;font-variant:normal;font-weight:normal;font-stretch:normal;font-size:medium;line-height:normal;font-family:sans-serif;font-variant-ligatures:normal;font-variant-position:normal;font-variant-caps:normal;font-variant-numeric:normal;font-variant-alternates:normal;font-feature-settings:normal;text-indent:0;text-align:start;text-decoration:none;text-decoration-line:none;text-decoration-style:solid;text-decoration-color:#000000;letter-spacing:normal;word-spacing:normal;text-transform:none;writing-mode:lr-tb;direction:ltr;text-orientation:mixed;dominant-baseline:auto;baseline-shift:baseline;text-anchor:start;white-space:normal;shape-padding:0;clip-rule:nonzero;display:inline;overflow:visible;visibility:visible;opacity:1;isolation:auto;mix-blend-mode:normal;color-interpolation:sRGB;color-interpolation-filters:linearRGB;solid-color:#000000;solid-opacity:1;vector-effect:none;fill:#be8aef;fill-opacity:1;fill-rule:nonzero;stroke:none;stroke-width:1.58749998;stroke-linecap:round;stroke-linejoin:round;stroke-miterlimit:4;stroke-dasharray:none;stroke-dashoffset:0;stroke-opacity:1;color-rendering:auto;image-rendering:auto;shape-rendering:auto;text-rendering:auto;enable-background:accumulate" />
    <path
       inkscape:connector-curvature="0"
       id="path1702"
       d="m 19.887872,292.21347 a 0.84321174,0.84283417 0 1 0 1.192479,1.19195 l 9.196609,-9.1925 a 0.84320971,0.84283214 0 1 0 -1.192478,-1.19194 z"
       style="color:#000000;font-style:normal;font-variant:normal;font-weight:normal;font-stretch:normal;font-size:medium;line-height:normal;font-family:sans-serif;font-variant-ligatures:normal;font-variant-position:normal;font-variant-caps:normal;font-variant-numeric:normal;font-variant-alternates:normal;font-feature-settings:normal;text-indent:0;text-align:start;text-decoration:none;text-decoration-line:none;text-decoration-style:solid;text-decoration-color:#000000;letter-spacing:normal;word-spacing:normal;text-transform:none;writing-mode:lr-tb;direction:ltr;text-orientation:mixed;dominant-baseline:auto;baseline-shift:baseline;text-anchor:start;white-space:normal;shape-padding:0;clip-rule:nonzero;display:inline;overflow:visible;visibility:visible;opacity:1;isolation:auto;mix-blend-mode:normal;color-interpolation:sRGB;color-interpolation-filters:linearRGB;solid-color:#000000;solid-opacity:1;vector-effect:none;fill:#be8aef;fill-opacity:1;fill-rule:nonzero;stroke:none;stroke-width:1.58749998;stroke-linecap:round;stroke-linejoin:round;stroke-miterlimit:4;stroke-dasharray:none;stroke-dashoffset:0;stroke-opacity:1;color-rendering:auto;image-rendering:auto;shape-rendering:auto;text-rendering:auto;enable-background:accumulate" />
    <path
       inkscape:connector-curvature="0"
       id="path1720"
       d="m 1.6075984,273.94138 a 0.84321162,0.84283405 0 1 0 1.1924786,1.19195 l 9.19661,-9.19249 a 0.84321158,0.84283401 0 1 0 -1.192478,-1.19195 z"
       style="color:#000000;font-style:normal;font-variant:normal;font-weight:normal;font-stretch:normal;font-size:medium;line-height:normal;font-family:sans-serif;font-variant-ligatures:normal;font-variant-position:normal;font-variant-caps:normal;font-variant-numeric:normal;font-variant-alternates:normal;font-feature-settings:normal;text-indent:0;text-align:start;text-decoration:none;text-decoration-line:none;text-decoration-style:solid;text-decoration-color:#000000;letter-spacing:normal;word-spacing:normal;text-transform:none;writing-mode:lr-tb;direction:ltr;text-orientation:mixed;dominant-baseline:auto;baseline-shift:baseline;text-anchor:start;white-space:normal;shape-padding:0;clip-rule:nonzero;display:inline;overflow:visible;visibility:visible;opacity:1;isolation:auto;mix-blend-mode:normal;color-interpolation:sRGB;color-interpolation-filters:linearRGB;solid-color:#000000;solid-opacity:1;vector-effect:none;fill:#be8aef;fill-opacity:1;fill-rule:nonzero;stroke:none;stroke-width:1.58749998;stroke-linecap:round;stroke-linejoin:round;stroke-miterlimit:4;stroke-dasharray:none;stroke-dashoffset:0;stroke-opacity:1;color-rendering:auto;image-rendering:auto;shape-rendering:auto;text-rendering:auto;enable-background:accumulate" />
    <path
       inkscape:connector-curvature="0"
       id="path1724"
       d="m 4.2492393,276.0687 a 0.84308689,0.84270938 0 1 0 1.1910142,1.19049 l 8.6832425,-8.67936 a 0.84308689,0.84270938 0 1 0 -1.191015,-1.19048 z"
       style="color:#000000;font-style:normal;font-variant:normal;font-weight:normal;font-stretch:normal;font-size:medium;line-height:normal;font-family:sans-serif;font-variant-ligatures:normal;font-variant-position:normal;font-variant-caps:normal;font-variant-numeric:normal;font-variant-alternates:normal;font-feature-settings:normal;text-indent:0;text-align:start;text-decoration:none;text-decoration-line:none;text-decoration-style:solid;text-decoration-color:#000000;letter-spacing:normal;word-spacing:normal;text-transform:none;writing-mode:lr-tb;direction:ltr;text-orientation:mixed;dominant-baseline:auto;baseline-shift:baseline;text-anchor:start;white-space:normal;shape-padding:0;clip-rule:nonzero;display:inline;overflow:visible;visibility:visible;opacity:1;isolation:auto;mix-blend-mode:normal;color-interpolation:sRGB;color-interpolation-filters:linearRGB;solid-color:#000000;solid-opacity:1;vector-effect:none;fill:#be8aef;fill-opacity:1;fill-rule:nonzero;stroke:none;stroke-width:1.58749998;stroke-linecap:round;stroke-linejoin:round;stroke-miterlimit:4;stroke-dasharray:none;stroke-dashoffset:0;stroke-opacity:1;color-rendering:auto;image-rendering:auto;shape-rendering:auto;text-rendering:auto;enable-background:accumulate" />
    <path
       inkscape:connector-curvature="0"
       id="path1744"
       d="m 13.78174,285.60573 a 0.84321158,0.84283401 0 1 0 1.192478,1.19195 l 9.203943,-9.19983 a 0.84320971,0.84283214 0 1 0 -1.192478,-1.19194 z"
       style="color:#000000;font-style:normal;font-variant:normal;font-weight:normal;font-stretch:normal;font-size:medium;line-height:normal;font-family:sans-serif;font-variant-ligatures:normal;font-variant-position:normal;font-variant-caps:normal;font-variant-numeric:normal;font-variant-alternates:normal;font-feature-settings:normal;text-indent:0;text-align:start;text-decoration:none;text-decoration-line:none;text-decoration-style:solid;text-decoration-color:#000000;letter-spacing:normal;word-spacing:normal;text-transform:none;writing-mode:lr-tb;direction:ltr;text-orientation:mixed;dominant-baseline:auto;baseline-shift:baseline;text-anchor:start;white-space:normal;shape-padding:0;clip-rule:nonzero;display:inline;overflow:visible;visibility:visible;opacity:1;isolation:auto;mix-blend-mode:normal;color-interpolation:sRGB;color-interpolation-filters:linearRGB;solid-color:#000000;solid-opacity:1;vector-effect:none;fill:#be8aef;fill-opacity:1;fill-rule:nonzero;stroke:none;stroke-width:1.58749998;stroke-linecap:round;stroke-linejoin:round;stroke-miterlimit:4;stroke-dasharray:none;stroke-dashoffset:0;stroke-opacity:1;color-rendering:auto;image-rendering:auto;shape-rendering:auto;text-rendering:auto;enable-background:accumulate" />
    <path
       inkscape:connector-curvature="0"
       id="path1754"
       d="m 8.8988762,281.7484 a 0.84308689,0.84270938 0 1 0 1.1910138,1.19048 l 8.692043,-8.68815 a 0.84308689,0.84270938 0 1 0 -1.191013,-1.19048 z"
       style="color:#000000;font-style:normal;font-variant:normal;font-weight:normal;font-stretch:normal;font-size:medium;line-height:normal;font-family:sans-serif;font-variant-ligatures:normal;font-variant-position:normal;font-variant-caps:normal;font-variant-numeric:normal;font-variant-alternates:normal;font-feature-settings:normal;text-indent:0;text-align:start;text-decoration:none;text-decoration-line:none;text-decoration-style:solid;text-decoration-color:#000000;letter-spacing:normal;word-spacing:normal;text-transform:none;writing-mode:lr-tb;direction:ltr;text-orientation:mixed;dominant-baseline:auto;baseline-shift:baseline;text-anchor:start;white-space:normal;shape-padding:0;clip-rule:nonzero;display:inline;overflow:visible;visibility:visible;opacity:1;isolation:auto;mix-blend-mode:normal;color-interpolation:sRGB;color-interpolation-filters:linearRGB;solid-color:#000000;solid-opacity:1;vector-effect:none;fill:#be8aef;fill-opacity:1;fill-rule:nonzero;stroke:none;stroke-width:1.58749998;stroke-linecap:round;stroke-linejoin:round;stroke-miterlimit:4;stroke-dasharray:none;stroke-dashoffset:0;stroke-opacity:1;color-rendering:auto;image-rendering:auto;shape-rendering:auto;text-rendering:auto;enable-background:accumulate" />
    <path
       inkscape:connector-curvature="0"
       id="path1758"
       d="m 11.341041,283.67633 a 0.84321174,0.84283417 0 1 0 1.192479,1.19195 l 9.202477,-9.19836 a 0.84320971,0.84283214 0 1 0 -1.19248,-1.19194 z"
       style="color:#000000;font-style:normal;font-variant:normal;font-weight:normal;font-stretch:normal;font-size:medium;line-height:normal;font-family:sans-serif;font-variant-ligatures:normal;font-variant-position:normal;font-variant-caps:normal;font-variant-numeric:normal;font-variant-alternates:normal;font-feature-settings:normal;text-indent:0;text-align:start;text-decoration:none;text-decoration-line:none;text-decoration-style:solid;text-decoration-color:#000000;letter-spacing:normal;word-spacing:normal;text-transform:none;writing-mode:lr-tb;direction:ltr;text-orientation:mixed;dominant-baseline:auto;baseline-shift:baseline;text-anchor:start;white-space:normal;shape-padding:0;clip-rule:nonzero;display:inline;overflow:visible;visibility:visible;opacity:1;isolation:auto;mix-blend-mode:normal;color-interpolation:sRGB;color-interpolation-filters:linearRGB;solid-color:#000000;solid-opacity:1;vector-effect:none;fill:#be8aef;fill-opacity:1;fill-rule:nonzero;stroke:none;stroke-width:1.58749998;stroke-linecap:round;stroke-linejoin:round;stroke-miterlimit:4;stroke-dasharray:none;stroke-dashoffset:0;stroke-opacity:1;color-rendering:auto;image-rendering:auto;shape-rendering:auto;text-rendering:auto;enable-background:accumulate" />
  </g>
</svg>
