<?xml version="1.0" encoding="iso-8859-1"?>
<!-- Generator: Adobe Illustrator 19.0.0, SVG Export Plug-In . SVG Version: 6.00 Build 0)  -->
<svg version="1.1" id="Layer_1" xmlns="http://www.w3.org/2000/svg" xmlns:xlink="http://www.w3.org/1999/xlink" x="0px" y="0px"
	 viewBox="0 0 512 512" style="enable-background:new 0 0 512 512;" xml:space="preserve">
<circle style="fill:#C2D5D8;" cx="256" cy="256" r="256"/>
<g>
	<circle style="fill:#2D4452;" cx="312" cy="396" r="32"/>
	<circle style="fill:#2D4452;" cx="384" cy="312" r="12"/>
	
		<rect x="116" y="182.009" transform="matrix(-0.7071 -0.7071 0.7071 -0.7071 200.8551 471.2142)" style="fill:#2D4452;" width="164.038" height="24"/>
	
		<rect x="304.027" y="133.524" transform="matrix(-0.6346 -0.7728 0.7728 -0.6346 350.8578 577.8436)" style="fill:#2D4452;" width="15.999" height="144.915"/>
	
		<rect x="198.031" y="233.956" transform="matrix(-0.7682 -0.6402 0.6402 -0.7682 164.5261 683.6796)" style="fill:#2D4452;" width="16" height="156.199"/>
	<circle style="fill:#2D4452;" cx="256" cy="256" r="60"/>
</g>
<path style="fill:#233540;" d="M256,196c-2.72,0-5.376,0.244-8,0.592c29.344,3.916,52,28.984,52,59.408s-22.656,55.484-52,59.408
	c2.624,0.356,5.28,0.592,8,0.592c33.136,0,60-26.864,60-60S289.136,196,256,196z"/>
<circle style="fill:#2D4452;" cx="140" cy="136" r="40"/>
<path style="fill:#233540;" d="M140,96c-1.348,0-2.684,0.072-4,0.204c20.212,2.008,36,19.064,36,39.796s-15.788,37.788-36,39.796
	c1.316,0.132,2.652,0.204,4,0.204c22.092,0,40-17.916,40-40S162.092,96,140,96z"/>
<circle style="fill:#2D4452;" cx="368" cy="160" r="20"/>
<path style="fill:#233540;" d="M368,140c-1.372,0-2.708,0.14-4,0.408c9.128,1.852,16,9.916,16,19.592s-6.872,17.744-16,19.592
	c1.292,0.26,2.628,0.408,4,0.408c11.048,0,20-8.952,20-20S379.048,140,368,140z"/>
<circle style="fill:#2D4452;" cx="154" cy="374" r="20"/>
<path style="fill:#233540;" d="M154,354c-1.028,0-2.012,0.152-3,0.3c9.612,1.456,17,9.68,17,19.7s-7.388,18.244-17,19.7
	c0.988,0.148,1.972,0.3,3,0.3c11.048,0,20-8.952,20-20S165.048,354,154,354z"/>
<g>
</g>
<g>
</g>
<g>
</g>
<g>
</g>
<g>
</g>
<g>
</g>
<g>
</g>
<g>
</g>
<g>
</g>
<g>
</g>
<g>
</g>
<g>
</g>
<g>
</g>
<g>
</g>
<g>
</g>
</svg>
